HIERARCHY
ROOT Hips
{
 OFFSET 0.000000 0.000000 0.000000
 CHANNELS 6 Xposition Yposition Zposition Yrotation Xrotation Zrotation
 JOINT Chest
 {
  OFFSET 0.000000 9.585900 0.002600
  CHANNELS 3 Yrotation Xrotation Zrotation
  JOINT Chest2
  {
   OFFSET 0.000000 9.601200 -0.005300
   CHANNELS 3 Yrotation Xrotation Zrotation
   JOINT Chest3
   {
    OFFSET 0.000000 9.561800 0.000000
    CHANNELS 3 Yrotation Xrotation Zrotation
    JOINT Chest4
    {
     OFFSET 0.000000 9.552100 0.000000
     CHANNELS 3 Yrotation Xrotation Zrotation
     JOINT Neck
     {
      OFFSET 0.000000 14.453000 0.000000
      CHANNELS 3 Yrotation Xrotation Zrotation
      JOINT Head
      {
       OFFSET 0.000000 8.936500 -0.011300
       CHANNELS 3 Yrotation Xrotation Zrotation
       End Site
       {
        OFFSET 0.000000 17.073600 -0.006000
       }
      }
     }
     JOINT RightCollar
     {
      OFFSET -2.921100 9.558500 0.000000
      CHANNELS 3 Yrotation Xrotation Zrotation
      JOINT RightShoulder
      {
       OFFSET -13.519700 0.000000 0.000000
       CHANNELS 3 Yrotation Xrotation Zrotation
       JOINT RightElbow
       {
        OFFSET 0.000000 -29.696600 0.000000
        CHANNELS 3 Yrotation Xrotation Zrotation
        JOINT RightWrist
        {
         OFFSET 0.000000 -24.004700 0.000000
         CHANNELS 3 Yrotation Xrotation Zrotation
         End Site
         {
          OFFSET 0.000000 -17.728500 0.000000
         }
        }
       }
      }
     }
     JOINT LeftCollar
     {
      OFFSET 2.921100 9.558500 0.000000
      CHANNELS 3 Yrotation Xrotation Zrotation
      JOINT LeftShoulder
      {
       OFFSET 13.519700 0.000000 0.000000
       CHANNELS 3 Yrotation Xrotation Zrotation
       JOINT LeftElbow
       {
        OFFSET 0.000000 -29.696600 0.000000
        CHANNELS 3 Yrotation Xrotation Zrotation
        JOINT LeftWrist
        {
         OFFSET 0.000000 -24.004700 0.000000
         CHANNELS 3 Yrotation Xrotation Zrotation
         End Site
         {
          OFFSET 0.000000 -17.728500 0.000000
         }
        }
       }
      }
     }
    }
   }
  }
 }
 JOINT RightHip
 {
  OFFSET -7.771700 -0.012900 -0.001300
  CHANNELS 3 Yrotation Xrotation Zrotation
  JOINT RightKnee
  {
   OFFSET 0.000000 -40.869800 0.001200
   CHANNELS 3 Yrotation Xrotation Zrotation
   JOINT RightAnkle
   {
    OFFSET 0.000000 -39.717900 0.002100
    CHANNELS 3 Yrotation Xrotation Zrotation
    JOINT RightToe
    {
     OFFSET 0.000000 -4.965400 11.033500
     CHANNELS 3 Yrotation Xrotation Zrotation
     End Site
     {
      OFFSET 0.000000 -1.423100 5.872300
     }
    }
   }
  }
 }
 JOINT LeftHip
 {
  OFFSET 7.771700 -0.012900 -0.001300
  CHANNELS 3 Yrotation Xrotation Zrotation
  JOINT LeftKnee
  {
   OFFSET 0.000000 -40.869800 0.001200
   CHANNELS 3 Yrotation Xrotation Zrotation
   JOINT LeftAnkle
   {
    OFFSET 0.000000 -39.717900 0.002100
    CHANNELS 3 Yrotation Xrotation Zrotation
    JOINT LeftToe
    {
     OFFSET 0.000000 -4.965400 11.033500
     CHANNELS 3 Yrotation Xrotation Zrotation
     End Site
     {
      OFFSET 0.000000 -1.423100 5.872300
     }
    }
   }
  }
 }
}
MOTION
Frames: 5
Frame Time: 0.008333
-21.688908 58.026559 13.644383 175.993770 -52.335768 -2.811094 3.448373 21.816483 3.260962 1.753264 12.484499 1.681707 2.266699 15.600373 2.169707 1.756106 12.495790 1.658294 2.010901 18.164965 1.135296 3.324215 -2.058830 1.428219 4.564725 3.144919 2.299911 -0.876973 -23.167639 -5.594028 -11.601420 -50.273670 50.121927 19.828686 14.232103 -24.262417 -8.735886 4.792449 -0.525878 16.229127 -28.197713 -9.256292 105.839558 -62.816000 -125.638348 5.375911 -0.037642 33.401384 1.919023 -19.671034 -2.921135 -31.007101 73.194316 -34.812247 6.828188 -12.069104 10.742087 0.070752 0.123398 0.088962 -3.516527 -16.574954 7.751563 82.683762 84.074263 81.859485 -0.025311 -22.005289 -15.958498 -0.056179 0.045556 -0.030410
-21.683572 58.032206 13.638104 176.008248 -52.337351 -2.817595 3.443687 21.823774 3.248968 1.752432 12.483598 1.679137 2.273843 15.608698 2.154213 1.758557 12.489197 1.671049 2.013737 18.158832 1.151791 3.320316 -2.055673 1.438966 4.569887 3.145284 2.300226 -0.870864 -23.173495 -5.595820 -11.627270 -50.272228 50.136111 19.823490 14.240973 -24.279583 -8.733510 4.785440 -0.513239 16.247384 -28.189074 -9.270787 105.826343 -62.816117 -125.649387 5.380930 -0.036752 33.402138 1.877363 -19.665232 -2.898028 -31.010711 73.219205 -34.852812 6.807126 -12.149318 10.723877 0.068587 0.121263 0.089149 -3.511841 -16.573943 7.754260 82.764277 84.083327 81.937928 -0.022841 -22.007258 -15.948378 -0.064016 0.039726 -0.030332
-21.677255 58.034188 13.634032 176.005458 -52.315550 -2.818986 3.447667 21.804164 3.248968 1.760965 12.492625 1.665807 2.271011 15.599447 2.166523 1.758651 12.491480 1.665407 2.014739 18.161731 1.159558 3.318399 -2.059688 1.452548 4.585109 3.141594 2.296692 -0.875025 -23.168286 -5.600233 -11.628817 -50.271702 50.129792 19.809699 14.233849 -24.293641 -8.729999 4.775881 -0.526128 16.254584 -28.179635 -9.261596 105.825729 -62.803519 -125.648370 5.375185 -0.022267 33.385887 1.847024 -19.681568 -2.864769 -31.035120 73.210330 -34.908624 6.802111 -12.234034 10.697748 0.060783 0.172684 0.108583 -3.501491 -16.596496 7.766895 82.803619 84.091135 81.984377 -0.032428 -22.010918 -15.950521 -0.061501 0.036724 -0.023469
-21.672568 58.037387 13.628120 176.007454 -52.307744 -2.816367 3.444746 21.799270 3.239516 1.764876 12.494806 1.665378 2.269085 15.597792 2.164752 1.760214 12.489733 1.668575 2.009445 18.168745 1.157984 3.316239 -2.058699 1.473751 4.595196 3.142691 2.286074 -0.850439 -23.160305 -5.630566 -11.671436 -50.272718 50.153579 19.792200 14.233332 -24.306112 -8.731952 4.772206 -0.569087 16.276403 -28.163746 -9.254464 105.835395 -62.818444 -125.702612 5.376701 -0.015908 33.391743 1.833594 -19.687141 -2.853102 -31.050628 73.220458 -34.944719 6.803907 -12.291742 10.691796 0.049707 0.187245 0.109133 -3.493943 -16.603694 7.768212 82.833917 84.097270 82.018497 -0.037383 -22.013786 -15.947473 -0.066825 0.034101 -0.024017
-21.669540 58.039956 13.621914 176.010984 -52.300322 -2.808842 3.444297 21.798910 3.228730 1.761202 12.489831 1.665703 2.273789 15.603189 2.157047 1.761265 12.489753 1.665651 2.007523 18.174235 1.166737 3.310313 -2.065752 1.496916 4.605809 3.139172 2.284423 -0.854365 -23.160836 -5.631236 -11.675106 -50.268135 50.152755 19.782832 14.225455 -24.314158 -8.734053 4.766828 -0.564099 16.283994 -28.160354 -9.254935 105.845730 -62.810783 -125.708402 5.379650 0.003903 33.386111 1.823314 -19.692789 -2.848427 -31.063859 73.235776 -34.978124 6.798458 -12.352500 10.688549 0.047693 0.179800 0.101583 -3.490835 -16.610602 7.760884 82.866415 84.099661 82.050836 -0.046664 -22.015292 -15.944493 -0.067816 0.031173 -0.026090
